<svg width="64" height="64" viewBox="0 0 64 64" fill="none" xmlns="http://www.w3.org/2000/svg">
<g clip-path="url(#clip0_20_2)">
<path d="M63.917 57.025C63.9175 57.9301 63.7397 58.8265 63.3937 59.6629C63.0477 60.4993 62.5402 61.2593 61.9004 61.8996C61.2605 62.5398 60.5008 63.0476 59.6646 63.3941C58.8284 63.7407 57.9321 63.919 57.027 63.919H6.887C5.98211 63.9186 5.08616 63.74 4.25031 63.3933C3.41446 63.0466 2.65509 62.5387 2.01556 61.8985C1.37603 61.2583 0.868868 60.4984 0.523036 59.6622C0.177204 58.826 -0.000524261 57.9299 1.16159e-06 57.025V6.889C0.000266104 5.06235 0.72588 3.31056 2.01733 2.01874C3.30878 0.726918 5.06035 0.000795329 6.887 0L57.027 0C58.8542 -1.92447e-08 60.6065 0.725771 61.8986 2.01768C63.1907 3.30959 63.9167 5.06183 63.917 6.889V57.025Z" fill="#1B75BB"/>
<path d="M13.368 25.806H5.95998V30.555H12.152C12.7246 30.555 13.1526 30.6833 13.436 30.94C13.7186 31.1967 13.86 31.541 13.86 31.973C13.86 32.405 13.7166 32.7467 13.43 32.998C13.1433 33.2513 12.7173 33.3783 12.152 33.379H5.95998V39.494C5.95931 40.272 5.78398 40.8483 5.43398 41.223C5.08331 41.5983 4.63431 41.786 4.08698 41.786C3.52698 41.786 3.07298 41.5963 2.72498 41.217C2.37364 40.837 2.19831 40.2627 2.19898 39.494V25.21C2.19898 24.67 2.27964 24.2283 2.44098 23.885C2.59964 23.5443 2.85098 23.2957 3.19498 23.139C3.53698 22.9837 3.97364 22.906 4.50498 22.906H13.369C13.9683 22.906 14.4133 23.0393 14.704 23.306C14.9953 23.5713 15.1413 23.9187 15.142 24.348C15.142 24.788 14.996 25.1407 14.704 25.406C14.4126 25.6733 13.9673 25.8067 13.368 25.806ZM21.14 33.529H19.823V39.493C19.8236 40.2783 19.651 40.8563 19.305 41.227C18.9583 41.5983 18.5066 41.7843 17.95 41.785C17.35 41.785 16.886 41.5907 16.558 41.202C16.228 40.8133 16.063 40.2437 16.063 39.493V25.21C16.0636 24.3993 16.245 23.813 16.607 23.451C16.9696 23.0863 17.5566 22.9043 18.368 22.905H24.484C25.3273 22.905 26.0493 22.941 26.65 23.013C27.2098 23.072 27.7567 23.2199 28.27 23.451C28.854 23.6937 29.3825 24.0528 29.8233 24.5063C30.2641 24.9598 30.608 25.4983 30.834 26.089C31.0666 26.693 31.1833 27.3323 31.184 28.007C31.1826 29.3903 30.792 30.4963 30.012 31.325C29.2313 32.1523 28.047 32.7387 26.459 33.084C27.1263 33.4393 27.7636 33.963 28.371 34.655C28.9796 35.347 29.522 36.084 29.998 36.866C30.476 37.6447 30.8476 38.3493 31.113 38.98C31.3796 39.6087 31.5123 40.0413 31.511 40.278C31.511 40.5213 31.4326 40.764 31.276 41.006C31.1226 41.246 30.91 41.436 30.638 41.576C30.3472 41.7204 30.0256 41.7918 29.701 41.784C29.279 41.784 28.9243 41.685 28.637 41.487C28.3462 41.2831 28.0954 41.0275 27.897 40.733C27.6049 40.2932 27.3242 39.8461 27.055 39.392L25.547 36.883C25.007 35.963 24.524 35.2617 24.098 34.779C23.672 34.299 23.2393 33.97 22.8 33.792C22.3606 33.618 21.8073 33.5303 21.14 33.529ZM23.291 25.729H19.822V30.833H23.191C24.0943 30.833 24.8533 30.7547 25.468 30.598C26.0873 30.442 26.558 30.1763 26.88 29.801C27.2066 29.4257 27.3696 28.908 27.369 28.248C27.3696 27.7347 27.2386 27.2817 26.976 26.889C26.711 26.4915 26.3311 26.1841 25.887 26.008C25.449 25.8227 24.5836 25.7297 23.291 25.729ZM45.12 25.806H36.648V30.365H44.449C45.021 30.365 45.4496 30.494 45.735 30.752C46.0163 31.0087 46.157 31.3477 46.157 31.769C46.157 32.1917 46.0183 32.536 45.741 32.802C45.4623 33.068 45.0316 33.2013 44.449 33.202H36.648V38.481H45.411C46.0016 38.481 46.4473 38.6183 46.748 38.893C47.0473 39.1677 47.197 39.5323 47.197 39.987C47.197 40.4257 47.0473 40.7823 46.748 41.057C46.4473 41.3317 46.0016 41.469 45.411 41.469H35.194C34.374 41.4683 33.7846 41.287 33.426 40.925C33.069 40.562 32.886 39.975 32.886 39.164V25.21C32.886 24.67 32.9666 24.2283 33.128 23.885C33.2886 23.5443 33.54 23.2957 33.882 23.139C34.224 22.9837 34.6613 22.906 35.194 22.906H45.12C45.72 22.906 46.165 23.0393 46.455 23.306C46.7476 23.5713 46.8936 23.9187 46.893 24.348C46.893 24.788 46.747 25.1407 46.455 25.406C46.1656 25.6733 45.7206 25.8067 45.12 25.806ZM60.57 25.806H52.098V30.365H59.899C60.474 30.365 60.899 30.494 61.184 30.752C61.4673 31.0087 61.609 31.3477 61.609 31.769C61.609 32.1917 61.4696 32.536 61.191 32.802C60.9123 33.068 60.4816 33.2013 59.899 33.202H52.098V38.481H60.861C61.4516 38.481 61.8973 38.6183 62.198 38.893C62.4966 39.1677 62.6463 39.5323 62.647 39.987C62.6463 40.4257 62.4966 40.7823 62.198 41.057C61.8973 41.3317 61.4516 41.469 60.861 41.469H50.645C49.825 41.4683 49.2356 41.287 48.877 40.925C48.519 40.5623 48.3396 39.9753 48.339 39.164V25.21C48.3383 24.67 48.419 24.2283 48.581 23.885C48.7396 23.5443 48.9903 23.2957 49.333 23.139C49.6743 22.9837 50.1116 22.906 50.645 22.906H60.571C61.171 22.906 61.616 23.0393 61.906 23.306C62.1986 23.5713 62.3446 23.9187 62.344 24.348C62.344 24.788 62.198 25.1407 61.906 25.406C61.616 25.6733 61.1706 25.8067 60.57 25.806Z" fill="white"/>
</g>
<defs>
<clipPath id="clip0_20_2">
<rect width="64" height="64" fill="white"/>
</clipPath>
</defs>
</svg>
